<?xml version="1.0" standalone="no"?>
<!DOCTYPE svg PUBLIC "-//W3C//DTD SVG 20010904//EN"
 "http://www.w3.org/TR/2001/REC-SVG-20010904/DTD/svg10.dtd">
<svg version="1.0" xmlns="http://www.w3.org/2000/svg"
 width="1000.000000pt" height="107.000000pt" viewBox="0 0 1000.000000 107.000000"
 preserveAspectRatio="xMidYMid meet">
 
<rect width="1000.000000pt" height="107.000000pt" x="0" y="0" fill="#FFFFFF" />
<path d="M2571 816 c-33 -19 -39 -38 -40 -128 -1 -74 -14 -108 -42 -108 -5 0
-9 -9 -9 -20 0 -11 4 -20 9 -20 29 0 41 -34 41 -110 0 -89 14 -116 68 -126 27
-6 32 -4 32 12 0 11 -10 24 -22 29 -20 9 -24 19 -28 90 -3 44 -12 90 -18 103
-10 17 -10 27 0 45 7 12 15 60 18 107 4 76 7 86 28 95 26 12 30 45 5 45 -10
-1 -29 -7 -42 -14z" transform="translate(0.000000,107.000000) scale(0.100000,-0.100000)"
fill="#000000" stroke="none"/>
<rect width="1000.000000pt" height="107.000000pt" x="0" y="0" fill="#FFFFFF" />
<path d="M9680 810 c0 -13 7 -20 18 -20 33 0 42 -22 42 -99 0 -48 6 -87 15
-104 13 -26 13 -31 0 -50 -10 -14 -15 -46 -15 -97 0 -78 -9 -100 -42 -100 -11
0 -18 -7 -18 -20 0 -23 25 -26 64 -9 33 16 38 29 45 129 5 76 8 86 29 95 12 5
22 17 22 25 0 8 -10 20 -22 25 -21 9 -23 19 -28 104 -5 86 -7 95 -33 117 -35
30 -77 32 -77 4z" transform="translate(0.000000,107.000000) scale(0.100000,-0.100000)"
fill="#000000" stroke="none"/>
<rect width="1000.000000pt" height="107.000000pt" x="0" y="0" fill="#FFFFFF" />
<path d="M747 813 c-4 -3 -7 -88 -7 -187 0 -203 6 -226 61 -226 22 0 29 5 29
20 0 11 -6 20 -14 20 -23 0 -26 24 -26 206 0 162 -1 174 -18 174 -10 0 -22 -3
-25 -7z" transform="translate(0.000000,107.000000) scale(0.100000,-0.100000)"
fill="#000000" stroke="none"/>
<rect width="1000.000000pt" height="107.000000pt" x="0" y="0" fill="#FFFFFF" />
<path d="M1703 812 c-23 -3 -23 -4 -23 -202 0 -226 -7 -210 94 -210 83 0 125
26 143 90 19 64 8 117 -33 158 -33 33 -37 34 -94 30 l-59 -4 -3 70 c-3 67 -4
71 -25 68z m144 -194 c34 -32 33 -119 -2 -154 -20 -20 -33 -25 -68 -22 l-42 3
-3 85 c-2 71 0 87 14 97 27 20 75 16 101 -9z" transform="translate(0.000000,107.000000) scale(0.100000,-0.100000)"
fill="#000000" stroke="none"/>
<rect width="1000.000000pt" height="107.000000pt" x="0" y="0" fill="#FFFFFF" />
<path d="M7953 812 c-23 -3 -23 -4 -23 -202 0 -226 -7 -210 94 -210 83 0 125
26 143 90 19 64 8 117 -33 158 -33 33 -37 34 -94 30 l-59 -4 -3 70 c-3 67 -4
71 -25 68z m144 -194 c34 -32 33 -119 -2 -154 -20 -20 -33 -25 -68 -22 l-42 3
-3 85 c-2 71 0 87 14 97 27 20 75 16 101 -9z" transform="translate(0.000000,107.000000) scale(0.100000,-0.100000)"
fill="#000000" stroke="none"/>
<rect width="1000.000000pt" height="107.000000pt" x="0" y="0" fill="#FFFFFF" />
<path d="M3917 794 c-12 -13 -8 -52 7 -57 8 -3 22 1 33 8 14 11 16 18 7 32
-12 19 -36 28 -47 17z" transform="translate(0.000000,107.000000) scale(0.100000,-0.100000)"
fill="#000000" stroke="none"/>
<rect width="1000.000000pt" height="107.000000pt" x="0" y="0" fill="#FFFFFF" />
<path d="M4547 794 c-12 -13 -8 -52 7 -57 8 -3 22 1 33 8 14 11 16 18 7 32
-12 19 -36 28 -47 17z" transform="translate(0.000000,107.000000) scale(0.100000,-0.100000)"
fill="#000000" stroke="none"/>
<rect width="1000.000000pt" height="107.000000pt" x="0" y="0" fill="#FFFFFF" />
<path d="M2713 776 c-39 -18 -53 -43 -53 -94 0 -48 31 -82 91 -102 60 -20 89
-46 89 -80 0 -55 -64 -73 -156 -45 -24 8 -42 -21 -24 -39 19 -19 153 -20 188
-2 44 23 60 78 38 129 -13 32 -26 43 -90 72 -76 35 -94 55 -81 95 8 25 43 34
105 27 39 -5 50 -3 54 10 4 9 3 20 -3 26 -16 16 -124 19 -158 3z" transform="translate(0.000000,107.000000) scale(0.100000,-0.100000)"
fill="#000000" stroke="none"/>
<rect width="1000.000000pt" height="107.000000pt" x="0" y="0" fill="#FFFFFF" />
<path d="M3384 771 c-75 -34 -111 -109 -101 -209 7 -64 32 -109 77 -139 27
-19 47 -23 106 -23 107 0 104 -3 104 101 0 88 0 89 -25 89 -23 0 -24 -3 -27
-72 l-3 -73 -37 -3 c-51 -4 -103 22 -122 63 -20 41 -21 137 -2 174 8 15 26 35
40 45 28 18 101 21 140 6 15 -5 26 -6 26 -1 0 5 3 16 6 24 4 11 -5 19 -33 26
-55 16 -102 13 -149 -8z" transform="translate(0.000000,107.000000) scale(0.100000,-0.100000)"
fill="#000000" stroke="none"/>
<rect width="1000.000000pt" height="107.000000pt" x="0" y="0" fill="#FFFFFF" />
<path d="M2920 771 c0 -15 55 -166 98 -271 34 -82 43 -95 65 -98 22 -3 29 4
47 45 30 68 120 309 120 322 0 6 -11 11 -24 11 -21 0 -28 -12 -67 -122 -66
-190 -69 -196 -82 -173 -5 10 -31 80 -57 154 -44 125 -50 136 -74 139 -14 2
-26 -1 -26 -7z" transform="translate(0.000000,107.000000) scale(0.100000,-0.100000)"
fill="#000000" stroke="none"/>
<rect width="1000.000000pt" height="107.000000pt" x="0" y="0" fill="#FFFFFF" />
<path d="M6958 762 c-32 -19 -34 -25 -13 -42 11 -9 19 -8 37 4 40 29 94 18
109 -20 13 -35 -5 -70 -65 -134 -60 -62 -86 -107 -86 -145 l0 -25 110 0 c103
0 110 1 110 20 0 18 -7 20 -85 20 -48 0 -85 4 -85 10 0 5 30 42 66 82 36 40
73 87 81 104 21 42 10 97 -24 124 -33 26 -116 27 -155 2z" transform="translate(0.000000,107.000000) scale(0.100000,-0.100000)"
fill="#000000" stroke="none"/>
<rect width="1000.000000pt" height="107.000000pt" x="0" y="0" fill="#FFFFFF" />
<path d="M7250 590 l0 -190 25 0 c25 0 25 1 25 85 l0 85 90 0 90 0 0 -85 c0
-84 0 -85 25 -85 l25 0 0 190 0 190 -25 0 c-25 0 -25 -1 -25 -80 l0 -80 -90 0
-90 0 0 80 c0 79 0 80 -25 80 l-25 0 0 -190z" transform="translate(0.000000,107.000000) scale(0.100000,-0.100000)"
fill="#000000" stroke="none"/>
<rect width="1000.000000pt" height="107.000000pt" x="0" y="0" fill="#FFFFFF" />
<path d="M7610 755 c0 -25 1 -25 91 -25 l91 0 -16 -22 c-84 -117 -176 -265
-176 -284 l0 -24 136 0 c135 0 135 0 132 23 -3 21 -9 22 -106 27 l-103 5 69
102 c38 56 83 119 101 139 17 21 31 49 31 61 0 23 -2 23 -125 23 l-125 0 0
-25z" transform="translate(0.000000,107.000000) scale(0.100000,-0.100000)"
fill="#000000" stroke="none"/>
<rect width="1000.000000pt" height="107.000000pt" x="0" y="0" fill="#FFFFFF" />
<path d="M8670 771 c0 -15 55 -166 98 -271 34 -82 43 -95 65 -98 22 -3 29 4
47 45 30 68 120 309 120 322 0 6 -11 11 -24 11 -21 0 -28 -12 -67 -122 -66
-190 -69 -196 -82 -173 -5 10 -31 80 -57 154 -44 125 -50 136 -74 139 -14 2
-26 -1 -26 -7z" transform="translate(0.000000,107.000000) scale(0.100000,-0.100000)"
fill="#000000" stroke="none"/>
<rect width="1000.000000pt" height="107.000000pt" x="0" y="0" fill="#FFFFFF" />
<path d="M9040 771 c0 -15 55 -166 98 -271 34 -82 43 -95 65 -98 22 -3 29 4
47 45 30 68 120 309 120 322 0 6 -11 11 -24 11 -21 0 -28 -12 -67 -122 -66
-190 -69 -196 -82 -173 -5 10 -31 80 -57 154 -44 125 -50 136 -74 139 -14 2
-26 -1 -26 -7z" transform="translate(0.000000,107.000000) scale(0.100000,-0.100000)"
fill="#000000" stroke="none"/>
<rect width="1000.000000pt" height="107.000000pt" x="0" y="0" fill="#FFFFFF" />
<path d="M9522 759 c-81 -41 -124 -147 -102 -253 15 -73 52 -106 118 -106 50
1 67 10 95 50 19 27 23 101 7 131 -18 33 -68 52 -121 46 l-48 -6 11 29 c14 41
62 79 109 86 29 5 39 11 39 25 0 26 -53 25 -108 -2z m58 -189 c24 -24 26 -77
4 -108 -19 -28 -67 -29 -94 -2 -23 23 -29 115 -7 123 30 13 78 6 97 -13z" transform="translate(0.000000,107.000000) scale(0.100000,-0.100000)"
fill="#000000" stroke="none"/>
<rect width="1000.000000pt" height="107.000000pt" x="0" y="0" fill="#FFFFFF" />
<path d="M5237 763 c-17 -4 -18 -17 -15 -163 4 -193 9 -203 97 -198 49 3 56 6
59 25 3 20 0 21 -39 16 -59 -8 -69 9 -69 114 l0 83 50 0 c43 0 50 3 50 20 0
17 -7 20 -50 20 l-50 0 0 45 c0 25 -3 44 -7 44 -5 -1 -16 -3 -26 -6z" transform="translate(0.000000,107.000000) scale(0.100000,-0.100000)"
fill="#000000" stroke="none"/>
<rect width="1000.000000pt" height="107.000000pt" x="0" y="0" fill="#FFFFFF" />
<path d="M5707 763 c-17 -4 -18 -17 -15 -163 4 -193 9 -203 97 -198 49 3 56 6
59 25 3 20 0 21 -39 16 -59 -8 -69 9 -69 114 l0 83 50 0 c43 0 50 3 50 20 0
17 -7 20 -50 20 l-50 0 0 45 c0 25 -3 44 -7 44 -5 -1 -16 -3 -26 -6z" transform="translate(0.000000,107.000000) scale(0.100000,-0.100000)"
fill="#000000" stroke="none"/>
<rect width="1000.000000pt" height="107.000000pt" x="0" y="0" fill="#FFFFFF" />
<path d="M6487 763 c-17 -4 -18 -17 -15 -163 4 -193 9 -203 97 -198 49 3 56 6
59 25 3 20 0 21 -39 16 -59 -8 -69 9 -69 114 l0 83 50 0 c43 0 50 3 50 20 0
17 -7 20 -50 20 l-50 0 0 45 c0 25 -3 44 -7 44 -5 -1 -16 -3 -26 -6z" transform="translate(0.000000,107.000000) scale(0.100000,-0.100000)"
fill="#000000" stroke="none"/>
<rect width="1000.000000pt" height="107.000000pt" x="0" y="0" fill="#FFFFFF" />
<path d="M133 673 c-10 -3 -13 -51 -13 -189 l0 -184 25 0 c24 0 25 3 25 53 l0
53 58 -4 c52 -4 61 -1 90 23 71 60 61 199 -18 240 -28 14 -139 20 -167 8z
m152 -58 c34 -33 36 -117 3 -152 -23 -25 -66 -30 -99 -13 -16 9 -19 22 -19 94
0 45 3 86 7 89 3 4 24 7 45 7 28 0 46 -7 63 -25z" transform="translate(0.000000,107.000000) scale(0.100000,-0.100000)"
fill="#000000" stroke="none"/>
<rect width="1000.000000pt" height="107.000000pt" x="0" y="0" fill="#FFFFFF" />
<path d="M479 665 c-78 -42 -77 -210 2 -250 15 -8 49 -15 75 -15 39 0 51 5 79
33 59 59 56 169 -6 221 -35 30 -106 35 -150 11z m120 -49 c33 -35 33 -117 0
-152 -27 -29 -68 -31 -100 -5 -21 16 -24 28 -24 81 0 53 3 65 24 81 32 26 73
24 100 -5z" transform="translate(0.000000,107.000000) scale(0.100000,-0.100000)"
fill="#000000" stroke="none"/>
<rect width="1000.000000pt" height="107.000000pt" x="0" y="0" fill="#FFFFFF" />
<path d="M866 653 c11 -45 52 -150 80 -204 24 -47 24 -52 9 -75 -16 -25 -55
-40 -79 -31 -15 6 -30 -19 -20 -34 8 -14 62 -11 94 6 37 19 67 77 114 222 43
135 44 143 11 143 -15 0 -25 -6 -25 -14 0 -16 -49 -188 -56 -195 -8 -9 -17 9
-50 106 -30 87 -36 98 -59 101 -24 3 -25 1 -19 -25z" transform="translate(0.000000,107.000000) scale(0.100000,-0.100000)"
fill="#000000" stroke="none"/>
<rect width="1000.000000pt" height="107.000000pt" x="0" y="0" fill="#FFFFFF" />
<path d="M1208 663 c-37 -23 -58 -70 -58 -128 0 -91 46 -135 143 -135 60 0 67
3 60 29 -4 15 -13 17 -51 13 -37 -3 -53 0 -72 16 -22 18 -25 28 -25 82 0 79
24 103 95 98 39 -3 45 -1 45 17 0 17 -7 20 -55 22 -38 2 -63 -2 -82 -14z" transform="translate(0.000000,107.000000) scale(0.100000,-0.100000)"
fill="#000000" stroke="none"/>
<rect width="1000.000000pt" height="107.000000pt" x="0" y="0" fill="#FFFFFF" />
<path d="M1386 653 c11 -45 52 -150 80 -204 24 -47 24 -52 9 -75 -16 -25 -55
-40 -79 -31 -15 6 -30 -19 -20 -34 8 -14 62 -11 94 6 37 19 67 77 114 222 43
135 44 143 11 143 -15 0 -25 -6 -25 -14 0 -16 -49 -188 -56 -195 -8 -9 -17 9
-50 106 -30 87 -36 98 -59 101 -24 3 -25 1 -19 -25z" transform="translate(0.000000,107.000000) scale(0.100000,-0.100000)"
fill="#000000" stroke="none"/>
<rect width="1000.000000pt" height="107.000000pt" x="0" y="0" fill="#FFFFFF" />
<path d="M2039 665 c-35 -19 -59 -72 -59 -130 0 -96 48 -138 153 -133 54 3 62
5 62 23 0 18 -6 20 -55 17 -64 -4 -95 14 -106 61 l-6 27 97 0 98 0 -7 47 c-9
68 -45 103 -105 103 -25 -1 -58 -7 -72 -15z m103 -37 c9 -7 19 -23 23 -35 6
-22 4 -23 -64 -23 -39 0 -71 4 -71 9 0 4 9 20 21 35 22 28 64 35 91 14z" transform="translate(0.000000,107.000000) scale(0.100000,-0.100000)"
fill="#000000" stroke="none"/>
<rect width="1000.000000pt" height="107.000000pt" x="0" y="0" fill="#FFFFFF" />
<path d="M2308 673 c-16 -4 -18 -19 -18 -139 l0 -134 25 0 24 0 3 118 3 117
45 0 c44 0 60 8 60 33 0 12 -101 16 -142 5z" transform="translate(0.000000,107.000000) scale(0.100000,-0.100000)"
fill="#000000" stroke="none"/>
<rect width="1000.000000pt" height="107.000000pt" x="0" y="0" fill="#FFFFFF" />
<path d="M3910 540 l0 -140 25 0 25 0 0 140 0 140 -25 0 -25 0 0 -140z" transform="translate(0.000000,107.000000) scale(0.100000,-0.100000)"
fill="#000000" stroke="none"/>
<rect width="1000.000000pt" height="107.000000pt" x="0" y="0" fill="#FFFFFF" />
<path d="M4052 660 c-27 -26 -30 -80 -4 -102 9 -9 38 -26 64 -38 51 -23 65
-44 46 -67 -9 -12 -26 -14 -70 -10 -45 4 -58 2 -63 -11 -9 -23 13 -32 83 -32
54 0 67 4 87 25 27 26 30 41 15 80 -7 18 -27 33 -70 52 -54 23 -61 29 -58 52
3 24 7 26 58 27 47 1 55 4 55 20 0 16 -9 19 -60 22 -50 2 -64 -1 -83 -18z" transform="translate(0.000000,107.000000) scale(0.100000,-0.100000)"
fill="#000000" stroke="none"/>
<rect width="1000.000000pt" height="107.000000pt" x="0" y="0" fill="#FFFFFF" />
<path d="M4540 528 c0 -84 -4 -159 -9 -167 -7 -11 -43 -16 -150 -19 -130 -4
-141 -6 -141 -23 0 -18 10 -19 140 -19 149 0 181 7 199 47 7 14 11 87 11 178
l0 155 -25 0 -25 0 0 -152z" transform="translate(0.000000,107.000000) scale(0.100000,-0.100000)"
fill="#000000" stroke="none"/>
<rect width="1000.000000pt" height="107.000000pt" x="0" y="0" fill="#FFFFFF" />
<path d="M4670 578 c0 -85 4 -109 20 -135 23 -38 44 -45 130 -41 l65 3 3 138
3 137 -26 0 -25 0 0 -120 0 -120 -40 0 c-68 0 -80 22 -80 140 l0 100 -25 0
-25 0 0 -102z" transform="translate(0.000000,107.000000) scale(0.100000,-0.100000)"
fill="#000000" stroke="none"/>
<rect width="1000.000000pt" height="107.000000pt" x="0" y="0" fill="#FFFFFF" />
<path d="M4992 660 c-27 -26 -30 -80 -4 -102 9 -9 38 -26 64 -38 51 -23 65
-44 46 -67 -9 -12 -26 -14 -70 -10 -45 4 -58 2 -63 -11 -9 -23 13 -32 83 -32
54 0 67 4 87 25 27 26 30 41 15 80 -7 18 -27 33 -70 52 -54 23 -61 29 -58 52
3 24 7 26 58 27 47 1 55 4 55 20 0 16 -9 19 -60 22 -50 2 -64 -1 -83 -18z" transform="translate(0.000000,107.000000) scale(0.100000,-0.100000)"
fill="#000000" stroke="none"/>
<rect width="1000.000000pt" height="107.000000pt" x="0" y="0" fill="#FFFFFF" />
<path d="M5949 665 c-35 -19 -59 -72 -59 -130 0 -96 48 -138 153 -133 54 3 62
5 62 23 0 18 -6 20 -55 17 -64 -4 -95 14 -106 61 l-6 27 97 0 98 0 -7 47 c-9
68 -45 103 -105 103 -25 -1 -58 -7 -72 -15z m103 -37 c9 -7 19 -23 23 -35 6
-22 4 -23 -64 -23 -39 0 -71 4 -71 9 0 4 9 20 21 35 22 28 64 35 91 14z" transform="translate(0.000000,107.000000) scale(0.100000,-0.100000)"
fill="#000000" stroke="none"/>
<rect width="1000.000000pt" height="107.000000pt" x="0" y="0" fill="#FFFFFF" />
<path d="M6180 674 c0 -3 18 -31 40 -63 22 -31 40 -60 40 -64 0 -4 -15 -28
-34 -54 -18 -27 -39 -58 -45 -70 -11 -21 -9 -23 12 -23 18 0 33 14 61 55 20
30 38 55 41 55 3 0 21 -25 40 -55 28 -43 41 -55 61 -55 23 0 24 2 13 23 -7 12
-28 46 -47 74 l-35 53 42 62 c39 61 40 63 18 67 -15 2 -28 -5 -42 -24 -55 -75
-48 -73 -84 -22 -23 34 -39 47 -56 47 -14 0 -25 -3 -25 -6z" transform="translate(0.000000,107.000000) scale(0.100000,-0.100000)"
fill="#000000" stroke="none"/>
<rect width="1000.000000pt" height="107.000000pt" x="0" y="0" fill="#FFFFFF" />
<path d="M8253 674 c-10 -4 -13 -42 -13 -140 l0 -134 25 0 25 0 0 120 0 120
38 0 c68 0 76 -14 80 -134 4 -106 4 -106 30 -106 l25 0 -6 114 c-6 125 -5 126
53 126 47 0 60 -30 60 -142 l0 -98 26 0 26 0 -4 114 c-3 106 -5 116 -28 141
-23 25 -29 26 -85 21 -70 -6 -67 -6 -165 -1 -41 2 -81 2 -87 -1z" transform="translate(0.000000,107.000000) scale(0.100000,-0.100000)"
fill="#000000" stroke="none"/>
<rect width="1000.000000pt" height="107.000000pt" x="0" y="0" fill="#FFFFFF" />
<path d="M3610 320 c0 -19 7 -20 130 -20 123 0 130 1 130 20 0 19 -7 20 -130
20 -123 0 -130 -1 -130 -20z" transform="translate(0.000000,107.000000) scale(0.100000,-0.100000)"
fill="#000000" stroke="none"/>
<rect width="1000.000000pt" height="107.000000pt" x="0" y="0" fill="#FFFFFF" />
<path d="M5390 320 c0 -19 7 -20 130 -20 123 0 130 1 130 20 0 19 -7 20 -130
20 -123 0 -130 -1 -130 -20z" transform="translate(0.000000,107.000000) scale(0.100000,-0.100000)"
fill="#000000" stroke="none"/>
<rect width="1000.000000pt" height="107.000000pt" x="0" y="0" fill="#FFFFFF" />
<path d="M6640 320 c0 -19 7 -20 130 -20 123 0 130 1 130 20 0 19 -7 20 -130
20 -123 0 -130 -1 -130 -20z" transform="translate(0.000000,107.000000) scale(0.100000,-0.100000)"
fill="#000000" stroke="none"/>
<rect width="1000.000000pt" height="107.000000pt" x="0" y="0" fill="#FFFFFF" />
</svg>
