<?xml version="1.0" encoding="utf-8"?>
<svg version="1.1" id="Layer_1" xmlns="http://www.w3.org/2000/svg" xmlns:xlink="http://www.w3.org/1999/xlink" x="0px" y="0px"
	 viewBox="0 0 1638.134 1637.864" enable-background="new 0 0 1638.134 1637.864" xml:space="preserve">
<g>
	<path d="M1433.754,991.267c0-10.967,0-19.183,0-28.892c25.662,0,51.112,0,77.446,0c0-17.178,0-32.875,0-49.578
		c-25.327,0-50.4,0-76.977,0c0-26.354,0-51.794,0-78.191c-17.182,0-32.885,0-49.432,0c0,94.408,0,188.744,0,283.765
		c15.857,0,31.216,0,48.093,0c0-25.302,0-50.742,0-77.054c10.383,0,19.284,0,29.195,0c0,51.549,0,102.839,0,155.25
		c42.875,0,84.791,0,127.694,0c0-225.034,0-450.432,0-676.665c-68.198,0-136.321,0-205.439,0c0,51.786,0,103.069,0,155.395
		c-36.089,0-71.208,0-107.844,0c0-25.245,0-50.684,0-77.087c-26.549,0-51.621,0-77.809,0c0-9.865,0-18.77,0-28.664
		c34.719,0,69.847,0,106.491,0c0,25.492,0,50.922,0,76.996c16.847,0,32.206,0,49.078,0c0-77.767,0-155.609,0-234.95
		c26.887,0,52.327,0,78.718,0c0-26.553,0-51.629,0-77.811c36.084,0,71.205,0,107.302,0c0,34.776,0,69.895,0,105.835
		c-9.006,0-17.906,0-27.806,0c0-25.591,0-50.673,0-76.783c-16.653,0-32.355,0-49.589,0c0,25.27,0,50.71,0,77.102
		c-26.553,0-51.627,0-77.805,0c0,16.644,0,32.356,0,49.046c67.8,0,135.924,0,204.866,0c0-94.465,0-188.8,0-284.137
		c-25.62,0-50.695,0-76.79,0c0-9.862,0-18.76,0-29.196c25.265,0,50.714,0,76.863,0c0-43.055,0-84.625,0-127.305
		c-94.09,0-188.427,0-283.728,0c0,15.371,0,31.071,0,48.287c77.966,0,155.815,0,234.302,0c0,10.057,0,18.622,0,28.696
		c-25.337,0-50.789,0-77.096,0c0,43.396,0,85.307,0,128.225c25.395,0,50.468,0,76.641,0c0,9.859,0,18.756,0,29.195
		c-77.481,0-155.335,0-233.991,0c0,17.186,0,32.883,0,49.586c25.615,0,50.691,0,76.788,0c0,9.861,0,18.76,0,29.196
		c-25.263,0-50.712,0-77.112,0c0,52.762,0,104.045,0,156.431c-88.523,0-176.065,0-265.12,0c0-25.064,0-50.504,0-76.718
		c-69.629,0-137.752,0-206.87,0c0,25.627,0,50.704,0,76.797c-88.527,0-176.069,0-264.495,0c0-8.808,0-17.709,0-27.615
		c77.826,0,155.326,0,233.928,0c0-16.637,0-32.349,0-49.036c-94.024,0-188.361,0-284.209,0c0,25.531,0,50.966,0,77.35
		c-52.775,0-104.059,0-156.362,0c0,42.889,0,84.802,0,128.232c25.314,0,50.75,0,77.142,0c0,26.553,0,51.629,0,78.204
		c26.357,0,51.797,0,78.159,0c0,36.611,0,71.727,0,107.65c-35.289,0-70.409,0-106.174,0c0-9.157,0-17.729,0-27.802
		c25.379,0,50.827,0,77.121,0c0-17.18,0-32.877,0-49.578c-25.435,0-50.511,0-77.086,0c0-26.357,0-51.797,0-78.154
		c-17.189,0-32.888,0-49.593,0c0,25.23,0,50.302,0,76.88c-26.352,0-51.793,0-78.719,0c0,53.108,0,104.745,0,157.872
		c-26.895,0-52.327,0-78.441,0c0,16.844,0,32.203,0,49.078c77.658,0,155.5,0,234.842,0c0,26.884,0,52.324,0,78.728
		c26.55,0,51.618,0,77.84,0c0,9.866,0,18.771,0,28.696c-60.838,0-122.18,0-184.386,0c0-8.887,0-17.787,0-27.692
		c25.455,0,50.536,0,76.694,0c0-16.642,0-32.353,0-49.016c-41.66,0-83.572,0-126.278,0c0,41.762,0,83.333,0,126.415
		c24.981,0,50.422,0,77.348,0c0,26.88,0,52.318,0,78.582c17.197,0,32.894,0,49.593,0c0-25.492,0-50.567,0-76.707
		c114.739,0,228.492,0,343.176,0c0,8.67,0,17.572,0,27.482c-25.252,0-50.334,0-76.56,0c0,42.874,0,84.79,0,128.224
		c24.934,0,50.373,0,77.288,0c0,26.893,0,52.331,0,78.719c52.774,0,104.057,0,156.842,0c0,52.591,0,104.227,0,156.771
		c17.191,0,32.889,0,49.593,0c0-25.293,0-50.366,0-76.943c26.353,0,51.793,0,78.202,0c0-17.183,0-32.88,0-50.108
		c-25.426,0-50.864,0-77.251,0c0-26.555,0-51.631,0-78.203c-52.592,0-104.228,0-157.357,0c0-26.887,0-52.327,0-78.729
		c-26.55,0-51.619,0-77.819,0c0-9.865,0-18.77,0-29.196c24.959,0,50.408,0,77.334,0c0-26.883,0-52.316,0-78.705
		c26.555,0,51.631,0,77.752,0c0-16.653,0-32.362,0-49.592c-103.883,0-207.937,0-312.972,0c0-52.771,0-104.054,0-156.458
		c-16.64,0-32.351,0-49.593,0c0,25.012,0,50.453,0,76.686c-10.394,0-19.295,0-29.195,0c0-25.555,0-50.637,0-77.214
		c-52.588,0-104.224,0-156.749,0c0-36.617,0-71.735,0-107.612c8.837,0,17.405,0,27.487,0c0,25.047,0,50.499,0,76.907
		c69.607,0,137.731,0,207.363,0c0-77.903,0-155.75,0-234.259c10.049,0,18.623,0,28.695,0c0,130.149,0,260.426,0,391.606
		c148.248,0,295.009,0,442.535,0c0-146.696,0-293.115,0-440.665c-172.661,0-345.636,0-520.122,0c0,24.994,0,50.434,0,76.674
		c-10.394,0-19.294,0-29.196,0c0-25.534,0-50.615,0-77.196c-26.355,0-51.795,0-78.118,0c0-10.385,0-19.287,0-29.194
		c182.589,0,364.937,0,548.421,0c0-16.63,0-32.343,0-49.584c-24.978,0-50.417,0-76.662,0c0-10.393,0-19.293,0-28.901
		c35.233,0,70.012,0,106.303,0c0,25.259,0,50.699,0,77.619c26.886,0,52.326,0,78.719,0c0,52.773,0,104.056,0,156.848
		c26.352,0,51.792,0,78.194,0c0,10.381,0,19.284,0,29.71c-25.415,0-50.856,0-76.957,0c0,16.835,0,32.195,0,48.622
		c68.013,0,136.138,0,205.182,0c0-15.517,0-31.214,0-47.917c-25.322,0-50.395,0-76.972,0c0-26.354,0-51.794,0-78.719
		c-26.884,0-52.322,0-78.559,0c0-36.623,0-71.742,0-107.543c9.054,0,17.628,0,27.702,0c0,25.269,0,50.721,0,77.653
		c26.87,0,52.31,0,78.703,0c0,26.554,0,51.628,0,77.822c95.32,0,189.657,0,284.977,0c0-41.536,0-83.448,0-126.197
		c-15.773,0-31.469,0-48.174,0c0,25.572,0,50.647,0,76.758c-9.865,0-18.768,0-28.592,0c0-34.944,0-70.069,0-105.957
		c35.072,0,69.846,0,105.748,0c0,87.246,0,174.787,0,263.309c-8.523,0-17.423,0-27.854,0c0-25.448,0-50.891,0-76.978
		c-69.275,0-137.055,0-206.349,0c0,51.532,0,103.169,0,155.691c-10.386,0-19.287,0-29.195,0c0-25.33,0-50.409,0-76.61
		c-69.097,0-137.223,0-206.333,0c0,67.751,0,135.875,0,204.834c15.771,0,31.467,0,48.173,0c0-25.569,0-50.644,0-76.757
		c9.86,0,18.759,0,29.195,0c0,25.214,0,50.664,0,77.075c52.757,0,104.036,0,156.44,0c0,9.865,0,18.769,0,29.194
		c-129.851,0-260.126,0-391.902,0c0,26.883,0,52.314,0,78.703c-26.555,0-51.631,0-77.748,0c0,42.888,0,84.801,0,128.232
		c51.463,0,103.1,0,155.708,0c0,26.554,0,51.627,0,78.208c105.024,0,209.077,0,314.097,0c0,10.38,0,19.283,0,29.709
		c-25.451,0-50.894,0-76.981,0c0,16.837,0,32.196,0,49.07c51.535,0,103.172,0,156.301,0c0,26.887,0,52.327,0,78.477
		c43.066,0,84.635,0,127.327,0c0-41.62,0-83.535,0-126.43c-15.338,0-31.039,0-48.257,0c0,25.504,0,50.939,0,77.005
		c-10.049,0-18.619,0-28.697,0c0-25.308,0-50.759,0-77.69c-26.872,0-52.311,0-78.703,0c0-26.554,0-51.628,0-78.204
		c-78.811,0-156.653,0-235.452,0c0-36.611,0-71.73,0-107.67c9.007,0,17.907,0,27.807,0c0,25.592,0,50.673,0,76.783
		c69.103,0,137.227,0,206.863,0c0-25.275,0-50.717,0-76.858c10.043,0,18.622,0,28.697,0c0,51.314,0,102.963,0,155.569
		c43.389,0,85.301,0,128.724,0c0-25.507,0-50.942,0-77.006c10.05,0,18.619,0,28.234,0c0,87.473,0,175.026,0,263.481
		c-61.219,0-122.546,0-184.87,0c0-25.37,0-50.445,0-76.627c-42.884,0-84.799,0-128.232,0c0,25.051,0,50.491,0,76.711
		c-10.397,0-19.297,0-29.195,0c0-51.812,0-103.1,0-155.422c-42.884,0-84.797,0-128.228,0c0,25.271,0,50.71,0,77.102
		c-26.553,0-51.628,0-78.204,0c0,26.356,0,51.797,0,78.172c-36.61,0-71.726,0-108.359,0c0-51.739,0-103.377,0-155.652
		c-43.069,0-84.637,0-127.719,0c0,51.594,0,103.232,0,155.733c-10.388,0-19.288,0-29.194,0c0-77.826,0-155.326,0-234.329
		c-26.349,0-51.789,0-78.712,0c0-53.11,0-104.747,0-157.173c-69.629,0-137.752,0-206.869,0c0,25.633,0,50.71,0,77.281
		c-26.364,0-51.802,0-78.716,0c0,26.894,0,52.338,0,78.462c-10.045,0-18.623,0-28.697,0c0-51.358,0-103.008,0-156.152
		c-26.867,0-52.304,0-79.215,0c0-53.115,0-104.753,0-157.357c-26.556,0-51.632,0-77.719,0c0-36.091,0-71.209,0-107.844
		c25.327,0,50.767,0,76.889,0c0-43.067,0-84.636,0-127.717c-25.171,0-50.612,0-76.969,0c0-36.614,0-71.733,0-107.65
		c9.076,0,17.975,0,27.872,0c0,25.66,0,50.742,0,76.828c42.886,0,84.799,0,127.591,0c0-120.504,0-241.052,0-362.604
		c-51.663,0-102.943,0-155.311,0c0-9.864,0-18.769,0-29.195c25.083,0,50.533,0,76.744,0c0-16.822,0-32.183,0-48.721
		c-41.48,0-83.395,0-126.336,0c0,41.414,0,83.327,0,126.753c25.355,0,50.792,0,76.908,0c0,10.046,0,18.623,0,28.282
		c-34.885,0-70.019,0-106.107,0c0-113.506,0-227.262,0-341.812c9.071,0,17.971,0,27.868,0c0,25.655,0,50.736,0,77.311
		c78.81,0,156.652,0,235.992,0c0,26.892,0,52.327,0,78.718c26.553,0,51.63,0,78.204,0c0,26.357,0,51.798,0,78.152
		c95.84,0,190.175,0,285.308,0c0-15.518,0-30.881,0-47.76c-77.42,0-155.263,0-234.606,0c0-53.106,0-104.743,0-157.225
		c-17.195,0-32.891,0-49.602,0c0,25.466,0,50.54,0,76.689c-9.859,0-18.757,0-29.196,0c0-25.111,0-50.559,0-76.976
		c-26.537,0-51.605,0-77.833,0c0-9.866,0-18.771,0-28.702c87.036,0,174.59,0,263.013,0c0,8.869,0,17.77,0,27.675
		c-25.437,0-50.518,0-76.682,0c0,42.88,0,84.794,0,128.225c77.563,0,155.406,0,234.229,0c0,26.553,0,51.627,0,77.856
		c95.318,0,189.657,0,285.509,0c0-24.905,0-50.345,0-76.616c10.39,0,19.291,0,29.195,0c0,25.445,0,50.528,0,77.108
		c26.359,0,51.792,0,78.714,0c0,26.885,0,52.324,0,78.516c16.837,0,32.2,0,48.728,0c0-67.722,0-135.849,0-204.991
		c-15.214,0-30.919,0-48.142,0c0,25.38,0,50.818,0,76.925c-10.046,0-18.623,0-28.697,0c0-25.184,0-50.637,0-76.998
		c-43.392,0-85.303,0-128.215,0c0,25.256,0,50.328,0,76.55c-36.08,0-71.2,0-107.338,0c0-8.423,0-17.328,0-27.766
		c25.354,0,50.799,0,77.206,0c0-52.76,0-104.041,0-156.399c9.864,0,18.768,0,29.195,0c0,25.113,0,50.563,0,76.764
		c69.268,0,137.05,0,206.348,0c0-24.974,0-50.413,0-76.839c10.38,0,19.284,0,29.711,0c0,25.343,0,50.788,0,77.196
		c52.76,0,104.04,0,156.402,0c0,9.864,0,18.768,0,29.195c-51.328,0-102.976,0-155.595,0c0,78.976,0,156.469,0,235.119
		c-36.08,0-71.202,0-107.844,0c0-24.907,0-50.346,0-76.616c-226.906,0-452.304,0-678.706,0c0,25.464,0,50.538,0,76.688
		c-9.865,0-18.769,0-29.195,0c0-51.33,0-102.977,0-155.597c-26.542,0-51.614,0-78.191,0c0-26.355,0-51.793,0-78.221
		c-69.623,0-137.747,0-206.738,0c0,15.674,0,31.37,0,48.07c51.696,0,102.979,0,155.764,0c0,26.357,0,51.798,0,78.719
		c26.885,0,52.324,0,78.719,0c0,52.772,0,104.056,0,156.482c42.881,0,84.797,0,128.231,0c0-24.946,0-50.383,0-76.639
		c193.897,0,386.287,0,579.672,0c0,25.505,0,50.58,0,76.717c69.106,0,137.231,0,206.869,0c0-77.623,0-155.467,0-234.289
		c52.771,0,104.055,0,156.474,0c0-42.882,0-84.798,0-128.231c-51.193,0-102.83,0-155.957,0c0-26.894,0-52.332,0-78.42
		c-43.068,0-84.637,0-127.717,0c0,25.267,0,50.707,0,77.031c-36.616,0-71.735,0-107.62,0c0-8.807,0-17.384,0-27.461
		c25.037,0,50.479,0,76.891,0c0-17.167,0-32.87,0-49.425c-68.171,0-136.294,0-205.413,0c0,51.763,0,103.047,0,155.831
		c-26.36,0-51.8,0-78.717,0c0,26.89,0,52.333,0,78.491c-10.038,0-18.61,0-28.694,0c0-25.039,0-50.489,0-77.423
		c-79.315,0-157.159,0-235.825,0c0-10.393,0-19.293,0-29.195c25.532,0,50.613,0,77.192,0c0-26.355,0-51.795,0-78.118
		c36.617,0,71.735,0,107.619,0c0,8.809,0,17.386,0,27.464c-25.033,0-50.481,0-76.893,0c0,17.17,0,32.866,0,49.424
		c68.173,0,136.296,0,205.112,0c0-42.059,0-83.627,0-126.256c-15.575,0-31.279,0-48.513,0c0,25.227,0,50.67,0,76.827
		c-10.038,0-18.61,0-28.693,0c0-25.04,0-50.49,0-76.9c-174.463,0-347.437,0-521.921,0c0,25.45,0,50.882,0,76.966
		c-36.269,0-71.039,0-106.872,0c0-8.8,0-17.704,0-28.131c25.193,0,50.642,0,76.816,0c0-16.829,0-32.189,0-48.689
		c-67.804,0-135.93,0-205.044,0c0,146.382,0,293.143,0,440.742c68.186,0,136.309,0,205.435,0c0-25.553,0-50.628,0-76.746
		c9.86,0,18.758,0,28.599,0c0,87.358,0,174.911,0,263.226c-8.82,0-17.397,0-27.475,0c0-25.038,0-50.48,0-76.892
		c-43.392,0-85.305,0-128.064,0c0,68.172,0,136.295,0,205.422c25.541,0,50.615,0,76.738,0c0,9.86,0,18.758,0,29.196
		c-25.185,0-50.634,0-76.811,0c0,69.27,0,137.051,0,206.343c25.046,0,50.486,0,77.41,0c0,53.109,0,104.746,0,157.872
		c26.895,0,52.332,0,78.718,0c0,52.774,0,104.058,0,156.388c42.887,0,84.801,0,128.232,0c0-25.233,0-50.672,0-77.065
		c26.554,0,51.628,0,78.204,0c0-26.355,0-51.795,0-78.184c36.609,0,71.726,0,108.359,0c0,51.701,0,103.339,0,155.944
		c26.555,0,51.631,0,77.738,0c0,62.31,0,123.639,0,185.868c-61.21,0-122.537,0-184.614,0c0-61.307,0-122.288,0-184.39
		c8.624,0,17.52,0,27.959,0c0,51.239,0,102.886,0,155.337c43.401,0,85.311,0,127.898,0c0-42.11,0-83.678,0-126.289
		c-15.63,0-31.332,0-48.563,0c0,25.279,0,50.722,0,76.861c-10.041,0-18.615,0-28.696,0c0-77.539,0-155.395,0-234.211
		c-17.168,0-32.863,0-50.089,0c0,25.504,0,50.934,0,77.323c-26.555,0-51.632,0-78.204,0c0,26.363,0,51.802,0,78.718
		c-79.331,0-157.173,0-235.741,0c0,43.066,0,84.635,0,127.72c51.363,0,102.999,0,155.579,0c0,10.381,0,19.28,0,29.018
		c-61.438,0-122.773,0-185.103,0c0-25.625,0-50.701,0-77.275c-26.364,0-51.804,0-78.097,0c0-10.388,0-19.289,0-29.196
		c25.384,0,50.464,0,77.046,0c0-26.349,0-51.79,0-78.713c26.885,0,52.322,0,78.537,0c0-43.416,0-85.326,0-128.232
		c-25.631,0-50.707,0-77.278,0c0-52.593,0-104.229,0-157.357c-26.891,0-52.327,0-78.457,0c0-167.34,0-333.175,0-500.519
		c51.384,0,103.021,0,155.594,0c0-17.187,0-32.887,0-49.402c-67.931,0-135.711,0-204.666,0c0,277.406,0,555.226,0,834.073
		c15.162,0,30.868,0,48.093,0c0-77.768,0-155.614,0-234.169c10.044,0,18.621,0,28.696,0c0,51.364,0,103.014,0,156.157
		c26.869,0,52.311,0,78.515,0c0,10.398,0,19.298,0,29.196c-25.632,0-50.713,0-77.29,0c0,26.36,0,51.798,0,78.715
		c-26.891,0-52.327,0-78.456,0c0,69.282,0,137.063,0,205.944c15.447,0,31.154,0,48.393,0c0-25.102,0-50.542,0-76.744
		c10.398,0,19.298,0,29.195,0c0,25.644,0,50.725,0,76.818c95.319,0,189.655,0,284.872,0c0-41.845,0-83.756,0-126.673
		c-51.648,0-102.928,0-155.301,0c0-9.859,0-18.756,0-28.64c61.012,0,122.351,0,184.695,0c0,51.431,0,102.712,0,155.163
		c121.535,0,242.081,0,364.139,0c0-51.097,0-102.735,0-155.229c10.389,0,19.29,0,29.195,0c0,51.631,0,102.921,0,155.304
		c69.098,0,137.224,0,206.864,0c0-25.093,0-50.531,0-76.932c26.552,0,51.623,0,78.208,0c0-26.352,0-51.787,0-78.222
		c10.383,0,19.287,0,29.083,0c0,35.029,0,70.153,0,106.277c-25.438,0-50.513,0-76.676,0c0,16.646,0,32.357,0,49.032
		c67.845,0,135.969,0,205.601,0c0-25.571,0-51.01,0-77.051c10.052,0,18.621,0,28.697,0c0,25.379,0,50.83,0,77.753
		c105.534,0,209.591,0,314.357,0c0,10.044,0,18.622,0,28.288c-532.925,0-1066.093,0-1600.22,0c0-532.873,0-1066.028,0-1600
		c533.279,0,1066.433,0,1600.264,0c0,507.143,0,1013.739,0,1521.389c-8.821,0-17.724,0-28.151,0c0-103.864,0-207.927,0-312.74
		c-43.052,0-84.622,0-127.709,0c0,25.064,0,50.503,0,76.898c-10.381,0-19.284,0-29.71,0c0-51.655,0-103.301,0-155.609
		c-43.058,0-84.627,0-127.707,0c0,25.289,0,50.729,0,77.045c-36.613,0-71.729,0-107.844,0c0-25.346,0-50.42,0-76.61
		c-42.883,0-84.799,0-128.232,0c0,51.25,0,102.889,0,155.331c-10.395,0-19.295,0-29.195,0c0-25.564,0-50.646,0-77.226
		c-52.588,0-104.226,0-156.747,0c0-10.386,0-19.287,0-29.195c25.331,0,50.41,0,76.999,0c0-26.347,0-51.786,0-78.18
		c10.381,0,19.284,0,29.711,0c0,25.439,0,50.882,0,76.973c16.836,0,32.196,0,49.07,0c0-25.292,0-50.732,0-77.047
		c62.83,0,124.157,0,186.482,0c0,25.348,0,50.421,0,76.612c16.642,0,32.354,0,49.593,0c0-25.023,0-50.461,0-77.375
		c26.9,0,52.33,0,78.401,0c0-43.069,0-84.637,0-127.717c-51.557,0-103.193,0-156.322,0c0-26.888,0-52.328,0-78.728
		c-26.549,0-51.621,0-77.801,0c0-9.865,0-18.769,0-28.657c34.742,0,69.87,0,106.514,0c0,25.512,0,50.947,0,77.011
		c43.069,0,84.637,0,127.717,0c0-51.569,0-103.206,0-155.715c36.614,0,71.729,0,107.844,0c0,25.391,0,50.468,0,77.043
		c26.364,0,51.796,0,78.169,0c0,89.045,0,176.588,0,264.941c-9.028,0-17.928,0-27.827,0c0-51.832,0-103.12,0-156.107
		C1485.955,991.267,1460.364,991.267,1433.754,991.267z"/>
</g>
</svg>
